PathFileType	4	(X/Y/Z)	C:\Users\WrightLab\Desktop\Jo\P3_6.trc
DataRate	CameraRate	NumFrames	NumMarkers	Units	OrigDataRate	OrigDataStartFrame	OrigNumFrames
100.00	100.00	       11	19	mm	100.00	199	       530
Frame#	Time	Headset_Front			Headset_Back			Headset_Left			Headset_Right			Left_Shoulder			Right_Shoulder			Sternum			C7			Left Elbow			Right Elbow			Left Wrist			Right Wrist			Left ASIS			Right ASIS			S2			Left Knee			Right Knee			Left Ankle			Right Ankle			
		X1	Y1	Z1	X2	Y2	Z2	X3	Y3	Z3	X4	Y4	Z4	X5	Y5	Z5	X6	Y6	Z6	X7	Y7	Z7	X8	Y8	Z8	X9	Y9	Z9	X10	Y10	Z10	X11	Y11	Z11	X12	Y12	Z12	X13	Y13	Z13	X14	Y14	Z14	X15	Y15	Z15	X16	Y16	Z16	X17	Y17	Z17	X18	Y18	Z18	X19	Y19	Z19	

199	1.980	-255.84846	1440.42871	681.55084	-144.04800	1632.09204	886.91315	-281.19583	1545.80359	860.95111	-123.91751	1510.51990	698.00934	-284.42834	1336.63806	986.64801	30.06414	1355.42871	817.38843	-185.52919	1222.09778	791.94067	-102.34491	1401.22400	941.58484	-294.27350	1007.38159	1074.13696	136.10440	1019.23895	788.84778	-332.02103	809.68451	1015.24670	60.68157	859.44611	636.80530	-233.78723	856.42322	865.44666	-3.11613	869.47809	760.42389	-41.24710	954.66614	1003.74414	-286.38330	469.70578	806.11530	79.55399	452.28201	890.34033	-303.70789	141.74953	770.06171	158.98860	154.76482	1034.61633	
200	1.990	-260.10617	1441.60522	674.34607	-148.59438	1631.20129	881.85370	-285.76334	1545.88916	854.32898	-127.82761	1511.99060	693.51550	-289.87399	1336.01367	979.58057	24.33117	1354.51147	811.46637	-190.89682	1221.95105	784.81152	-107.63281	1400.37524	935.11652	-300.83603	1006.46411	1065.21094	130.11742	1018.34332	782.93854	-339.76440	809.52533	1005.38452	55.67759	859.02936	629.58545	-240.93861	855.81433	858.03369	-10.78992	868.25763	750.85156	-47.04755	953.51855	995.43091	-290.95441	468.14670	800.00562	74.37220	452.05673	883.17572	-305.62015	139.09717	769.51465	157.70604	157.73785	1031.83154	
201	2.000	-264.55573	1442.88916	667.39026	-153.65590	1630.38245	876.96655	-291.33237	1545.96069	847.95209	-132.25096	1512.17554	687.19763	-295.43961	1335.47290	973.53235	18.00608	1353.66541	803.86438	-196.80084	1221.88098	777.29297	-113.49859	1399.78918	928.09839	-308.37158	1005.90704	1056.36169	124.13069	1017.60461	776.55847	-348.44196	809.24835	995.98810	49.69436	858.90332	623.02094	-248.94450	855.90668	851.55017	-20.05370	868.04236	742.28937	-52.56332	952.37134	986.20581	-296.27991	466.36694	794.63580	68.27628	451.69937	875.78137	-307.37601	136.57442	768.60193	157.06058	160.62730	1028.96216	
202	2.010	-268.99457	1444.31152	660.54620	-159.05252	1629.92139	872.01135	-296.39114	1546.40015	841.35535	-136.58594	1512.81421	680.55957	-301.28000	1335.14502	966.62830	12.51929	1352.77161	797.93628	-203.20811	1221.75879	770.70416	-119.17961	1399.07227	921.85541	-315.96576	1005.03687	1048.07715	118.17903	1016.32489	770.21265	-356.25653	809.11932	985.99579	44.07644	858.69464	615.79517	-256.87619	855.62671	844.20654				-58.89546	951.11731	978.49152	-301.63162	464.69589	789.19629	62.56435	450.90811	868.64185	-305.48563	132.35027	766.97137	155.08876	163.10655	1025.18738	
203	2.020	-273.36014	1445.58289	653.54822	-164.19417	1629.62354	866.92334	-301.13278	1546.18250	834.78528	-140.69992	1513.43066	675.82806	-307.12897	1334.96838	960.07904	6.58185	1352.68274	790.77277	-209.95583	1221.90698	763.34296	-124.74767	1397.64380	915.06897	-323.09927	1003.97162	1039.62488	111.88876	1016.19684	764.65228	-364.36807	809.39203	975.48407	37.86271	858.70367	608.68610	-265.23337	855.59375	837.28296	-37.98119	865.41632	724.89923	-65.79410	949.83691	970.08630	-306.95947	462.86227	784.81427	55.94811	450.10547	861.01025	-312.84500	133.59427	763.19043	153.20766	166.23845	1021.32379	
204	2.030	-277.78806	1446.97363	646.61945	-168.84900	1629.12354	861.77753	-306.46777	1546.78284	828.40961	-145.05226	1514.04285	669.90234	-313.07025	1334.88452	953.20837	0.57224	1351.42700	784.20343	-216.53426	1221.79736	757.02112	-130.45088	1397.89758	908.84741	-330.95569	1003.86700	1031.21545	105.41373	1015.30829	758.58521	-373.27148	809.13422	965.95563	32.41616	858.23444	601.95410	-273.58420	855.71399	830.23004	-47.53783	864.93103	715.22595	-72.11275	949.01740	961.25183	-312.38046	461.71017	781.32544	48.75282	449.26074	851.79340	-314.99731	132.01669	759.74432	151.64058	169.94353	1017.89172	
205	2.040	-282.24976	1448.46289	639.74396	-174.24016	1628.86804	856.58514	-312.28882	1547.42651	821.47906	-149.54593	1514.33325	663.97290	-318.89050	1334.81946	947.16766	-5.24909	1351.10437	777.66083	-223.03374	1222.55054	749.48798	-136.18060	1397.17419	902.91846	-338.61755	1003.25043	1022.50122	99.35209	1014.63135	752.64160	-381.73465	809.73425	955.84967	26.01420	858.53387	595.03607	-282.55063	855.55023	823.71375	-56.49836	863.89026	706.16431	-78.59632	948.29187	952.45093	-317.43573	460.91486	777.75397	41.72748	448.47897	842.89124	-316.73322	130.26013	758.11444	148.74727	173.23257	1012.95941	
206	2.050	-286.51031	1450.08459	632.51526	-179.95174	1628.91296	851.29980	-318.19666	1548.42590	814.90552	-153.78561	1515.50854	658.71008	-324.95926	1335.63477	940.71942	-11.39943	1350.76941	771.37823	-229.98143	1223.18274	743.06915	-141.49571	1397.62781	896.08002	-347.17712	1003.39459	1013.89111	92.81286	1013.99310	746.03387	-390.31888	810.35291	945.76202	19.73337	858.69623	588.50562	-291.02463	856.01294	817.22223				-84.93916	947.73383	944.10785	-322.62384	460.43842	773.52386	33.28740	447.54099	832.71021	-317.89252	129.72061	756.92786	145.75908	176.55901	1008.30548	
207	2.060	-291.14697	1451.37695	625.68695	-185.24168	1629.44568	845.76526	-323.55212	1549.92163	808.08539	-158.40938	1516.08240	651.96539	-330.76550	1336.00757	934.99316	-18.05704	1350.43042	764.46454	-237.36421	1224.05969	736.63867	-147.79166	1397.63623	890.22473	-355.17114	1003.63318	1005.47852	86.72935	1014.03772	740.51385	-398.95984	811.44647	935.09698	13.41293	859.66852	581.74866	-299.53006	856.86536	811.13910	-76.70380	863.32147	688.34778	-91.89606	947.86975	935.87415	-327.93317	460.56573	768.82324	24.52698	446.47168	821.47528	-313.87677	125.70198	757.09857	141.76166	180.92751	1002.33441	
208	2.070	-295.56464	1453.27966	618.62305	-191.14706	1630.44556	840.13751	-329.15866	1550.81250	801.09668	-162.53943	1518.56799	647.45721	-336.45334	1336.92419	928.93921	-23.94843	1350.75854	757.87671	-243.75497	1225.13647	730.29535	-153.07846	1398.32666	883.23199	-363.32199	1003.87476	997.10034	79.72699	1014.02509	734.26147	-408.62769	812.49255	925.27722	7.88655	859.97699	574.83344	-308.02664	858.17078	805.34119	-86.19022	862.79791	681.05273	-98.69006	948.10107	928.02045	-333.73660	460.80020	764.64960	15.00910	445.09283	808.76715	-319.62415	129.78477	755.86072	137.34683	185.19307	995.72546	
209	2.080	-299.88013	1455.15381	611.37061	-196.90221	1631.10522	834.45837	-335.14957	1552.68396	793.75500	-167.38580	1518.96240	641.10474	-342.41968	1337.78918	922.83124	-30.47103	1350.85742	750.62726	-250.88037	1226.27478	724.05359	-159.62320	1399.17590	876.83160	-371.50092	1004.59521	988.66522	72.75153	1014.02692	728.26581	-417.42651	814.06567	914.78546	1.65363	861.53442	567.17078	-315.98663	859.72968	799.70135	-97.26723	862.39447	670.96906	-103.37213	948.92133	919.23602	-339.26447	460.75009	760.97858	4.45954	443.62128	795.46985	-321.62598	129.24762	755.43939	131.73311	190.67537	987.60248	
